# xmcd
#
# Track frame offsets: 
#        150
#        22280
#        51518
#        81745
#        98958
#        116400
#        134330
#        150503
#        164703
#
# Disc length: 2474 seconds
#
# Revision: 2
# Processed by: cddbd v1.5.1PL0 Copyright (c) Steve Scherf et al.
# Submitted via: ExactAudioCopy v0.95a5
#
DISCID=8109a809
DTITLE=Snowy White - Bird Of Paradise
DYEAR=1990
DGENRE=Blues
TTITLE0=Bird Of Paradise (Extended Version)
TTITLE1=The Journey (Part One&Two)
TTITLE2=Lucky Star
TTITLE3=Don't Turn Back
TTITLE4=It's No Secret
TTITLE5=Lucky I've Got You
TTITLE6=The Answer
TTITLE7=Open Carefully
TTITLE8=At The Crossroads
EXTD=
EXTT0=
EXTT1=
EXTT2=
EXTT3=
EXTT4=
EXTT5=
EXTT6=
EXTT7=
EXTT8=
PLAYORDER=
